<?xml version="1.0" encoding="utf-8"?>
<!-- Generator: Adobe Illustrator 22.0.1, SVG Export Plug-In . SVG Version: 6.00 Build 0)  -->
<svg version="1.1" id="Capa_1" xmlns="http://www.w3.org/2000/svg" xmlns:xlink="http://www.w3.org/1999/xlink" x="0px" y="0px"
	 viewBox="0 0 450.3 84" style="enable-background:new 0 0 450.3 84;" xml:space="preserve">
<style type="text/css">
	.st0{fill:#FFFFFF;}
	.st1{fill:#008CCC;}
	.st2{fill:#515151;}
</style>
<g>
	<path class="st0" d="M123.2,77.5H15.9c-5.2,0-9.5-4.3-9.5-9.5V15.6c0-5.2,4.3-9.5,9.5-9.5h107.4c5.2,0,9.5,4.3,9.5,9.5V68
		C132.7,73.2,128.5,77.5,123.2,77.5z"/>
	<g>
		<path class="st1" d="M96.1,70.6c-13.9,0-28-10.3-28-30.1c0-17.1-12.8-24.9-24.6-24.9C31.7,15.6,19,23.4,19,40.5h-2.6
			c0-18.9,14-27.5,27-27.5c7.1,0,13.7,2.4,18.7,6.9c5.6,5,8.5,12.1,8.5,20.6c0,18,12.8,27.5,25.4,27.5c6.4,0,12.2-2.4,16.5-6.7
			c4.9-4.9,7.5-12.1,7.5-20.8h2.6c0,9.4-2.9,17.2-8.3,22.6C109.6,67.9,103.1,70.6,96.1,70.6z"/>
		<rect x="87" y="20.7" class="st1" width="4.5" height="8.1"/>
		<rect x="98.7" y="20.7" class="st1" width="4.5" height="8.1"/>
	</g>
</g>
<g>
	<g>
		<path class="st0" d="M173.8,40.3c0,0.6-0.1,1.4-0.3,2.6c-0.2,1.4-1,2.1-2.4,2.1c-0.8,0-1.6-0.4-2.6-1.3c-4.2-3.8-9-9.2-14.4-16.1
			c-0.1,2.9-0.1,4.6-0.1,5.3c0,0.9,0,2.2,0.1,3.9c0,1.8,0.1,3.1,0.1,3.9c0,3.3-0.8,4.9-2.4,4.9c-0.8,0-1.5-0.2-1.9-0.7
			c-0.4-0.4-0.6-1-0.6-1.6c0-0.4,0-1.1,0.1-2c0.1-0.9,0.1-1.6,0.1-2c0-0.7,0-1.6,0.1-2.9c0-1.3,0.1-2.3,0.1-2.9c0-0.7,0-1.7,0-3.1
			c0-1.4,0-2.4,0-3.1c0-0.7-0.1-1.6-0.2-3c-0.1-1.3-0.2-2.3-0.2-3c0-0.7,0.3-1.3,0.9-1.8c0.6-0.5,1.2-0.8,1.9-0.8
			c0.8,0,1.7,0.7,2.7,2.1c5,7.1,9.9,13,14.8,17.5c0-0.4,0-1.2,0-2.5c0-5.4-0.1-9.1-0.2-11c0-0.3-0.1-0.9-0.2-1.8
			c-0.1-0.8-0.2-1.4-0.2-1.8c0-1.5,0.8-2.3,2.4-2.3c1.8,0,2.7,2.8,2.7,8.3c0,0.1,0,1,0,2.6C173.8,35.4,173.8,38.9,173.8,40.3z"/>
		<path class="st0" d="M190.6,24.8c-0.5,0-2-0.2-4.4-0.5c-0.2,2-0.2,4.7-0.2,8.1l0,7.4c1.5,0,3,0,4.5,0c0.7,0,1.2,0.2,1.6,0.7
			c0.4,0.4,0.7,1,0.7,1.6s-0.2,1.1-0.7,1.6c-0.4,0.4-1,0.7-1.7,0.7c-0.6,0-1.6,0-2.8,0c-1.3,0-2.2,0-2.8,0c-0.7,0-1.9,0.1-3.3,0.3
			c-1.5,0.2-2.6,0.3-3.3,0.3c-0.7,0-1.2-0.2-1.7-0.7c-0.4-0.4-0.7-1-0.7-1.6c0-0.6,0.2-1.1,0.7-1.6c0.5-0.4,1.1-0.7,1.8-0.7
			c0.8,0,1.9-0.1,3.2-0.2c0-1.3,0-3.8,0-7.5c0-3,0.1-5.9,0.3-8.6l-3.6,0.1c-0.7,0-1.2-0.2-1.7-0.6s-0.7-1-0.7-1.6
			c0-0.7,0.2-1.2,0.6-1.6c0.4-0.4,0.9-0.6,1.5-0.6c0.9-0.1,2.6-0.1,4.9-0.1c2.1,0,4.8,0.2,8.1,0.7c1.3,0.2,2,0.9,2,2.3
			c0,0.7-0.3,1.3-0.8,1.7C191.7,24.6,191.2,24.8,190.6,24.8z"/>
		<path class="st0" d="M219.9,40.3c0,0.6-0.1,1.4-0.3,2.6c-0.2,1.4-1,2.1-2.4,2.1c-0.8,0-1.6-0.4-2.6-1.3c-4.2-3.8-9-9.2-14.4-16.1
			c-0.1,2.9-0.1,4.6-0.1,5.3c0,0.9,0,2.2,0.1,3.9c0,1.8,0.1,3.1,0.1,3.9c0,3.3-0.8,4.9-2.4,4.9c-0.8,0-1.5-0.2-1.9-0.7
			c-0.4-0.4-0.6-1-0.6-1.6c0-0.4,0-1.1,0.1-2c0.1-0.9,0.1-1.6,0.1-2c0-0.7,0-1.6,0.1-2.9c0-1.3,0.1-2.3,0.1-2.9c0-0.7,0-1.7,0-3.1
			c0-1.4,0-2.4,0-3.1c0-0.7-0.1-1.6-0.2-3c-0.1-1.3-0.2-2.3-0.2-3c0-0.7,0.3-1.3,0.9-1.8c0.6-0.5,1.2-0.8,1.9-0.8
			c0.8,0,1.7,0.7,2.7,2.1c5,7.1,9.9,13,14.8,17.5c0-0.4,0-1.2,0-2.5c0-5.4-0.1-9.1-0.2-11c0-0.3-0.1-0.9-0.2-1.8
			c-0.1-0.8-0.2-1.4-0.2-1.8c0-1.5,0.8-2.3,2.4-2.3c1.8,0,2.7,2.8,2.7,8.3c0,0.1,0,1,0,2.6C219.9,35.4,219.9,38.9,219.9,40.3z
			 M213.8,16c-0.7,0.6-1.7,0.9-2.8,0.9c-1.3,0-2.3-0.2-3.1-0.5c-0.7-0.3-1.4-0.9-2.2-1.8c-0.4-0.5-0.8-0.7-1.1-0.7
			c-0.6,0-1.1,0.4-1.6,1.2c-0.5,0.8-1.1,1.2-1.8,1.2c-0.5,0-0.9-0.1-1.3-0.4c-0.4-0.3-0.6-0.7-0.6-1.1c0-0.1,0-0.3,0.1-0.5
			c0.3-1,1-1.9,1.9-2.5c1-0.7,2.1-1,3.4-1c1.1,0,2,0.2,2.7,0.6c0.4,0.2,1,0.8,1.8,1.7c0.4,0.5,0.9,0.7,1.5,0.7c0.5,0,0.8-0.2,1-0.5
			c0.2-0.3,0.4-0.6,0.5-0.9c0.1-0.2,0.2-0.4,0.3-0.8c0.3-0.5,0.8-0.7,1.6-0.7c0.5,0,1,0.1,1.4,0.4c0.4,0.3,0.5,0.7,0.5,1.1
			c0,0.4-0.3,1-0.8,1.9C214.6,15.2,214.1,15.7,213.8,16z"/>
		<path class="st0" d="M234.2,45.3c-3.3,0-6-0.9-8.3-2.8c-2.4-2-3.7-4.6-3.7-7.8c0-3.7,1.2-7.2,3.5-10.3c2.6-3.5,6-5.2,10-5.2
			c3.8,0,6.7,0.9,8.7,2.6c1.9,1.8,2.9,4.4,2.9,8c0,3.8-1.1,7.1-3.2,10.2C241.5,43.6,238.3,45.3,234.2,45.3z M235.7,23.8
			c-2.5,0-4.6,1.2-6.3,3.6c-1.6,2.2-2.5,4.7-2.5,7.4c0,1.8,0.7,3.3,2.1,4.5c1.4,1.1,3.1,1.7,5.2,1.7c2.4,0,4.5-1.2,6.1-3.6
			c1.5-2.2,2.2-4.6,2.2-7.4c0-2.3-0.5-3.9-1.6-4.8C240,24.2,238.2,23.8,235.7,23.8z"/>
		<path class="st0" d="M283,23.9c-0.6,1.2-1.7,3.7-3.4,7.5c-1.4,3.2-2.6,5.7-3.6,7.6c-1.7,3.2-2.6,4.9-2.8,5c-0.7,1-1.4,1.4-2.3,1.4
			c-0.6,0-1.1-0.2-1.6-0.6c-0.5-0.4-0.8-1-0.8-1.6c0-0.5,1.2-2.8,3.5-6.8c-0.8-1.2-2.1-3.1-3.7-5.6c-1.2-1.8-2.9-4.6-5.2-8.3
			c-0.2-0.4-0.3-0.8-0.3-1.2c0-0.6,0.2-1.2,0.7-1.6c0.5-0.4,1-0.6,1.6-0.6c0.7,0,1.4,0.4,2,1.1l1.2,2c0.1,0.1,1,1.7,2.8,4.8
			c1.1,2,2.2,3.5,3,4.7c0.8-1.7,2-4.2,3.6-7.7c0.3-0.8,0.8-1.9,1.5-3.5c0.4-1,1.1-1.5,2.2-1.5c0.6,0,1.1,0.2,1.6,0.6
			c0.5,0.4,0.8,1,0.8,1.6C283.9,21.8,283.6,22.6,283,23.9z"/>
		<path class="st0" d="M317.5,26.7c-1,0-1.7-0.5-2.2-1.6c-0.2-0.5-0.4-0.8-0.7-0.9c-0.2-0.1-0.6-0.1-1.3-0.1c-1.4,0-3,1.1-4.8,3.2
			c-2.5,3-3.8,5.9-3.8,8.5c0,1.2,0.4,2.2,1.2,3.1s1.8,1.3,2.9,1.3c1.1,0,2.2-0.3,3.3-0.9c0.4-0.2,1.2-0.8,2.5-1.6
			c0.9-0.6,1.5-0.9,2-0.9c0.7,0,1.2,0.2,1.7,0.7c0.4,0.5,0.6,1,0.6,1.6c0,0.7-0.3,1.2-0.9,1.7c-3,2.6-6.1,3.8-9.3,3.8
			c-2.5,0-4.6-0.9-6.3-2.7c-1.6-1.7-2.4-3.8-2.4-6.2c0-3.7,1.6-7.5,4.8-11.3c2.7-3.3,5.6-4.9,8.4-4.9c0.5,0,0.9,0,1.3,0
			c0.4,0,0.7,0.1,1,0.1c0.5-0.5,1.1-0.7,1.8-0.7c1.1,0,1.8,0.6,2.1,1.9c0.2,0.9,0.3,2,0.3,3.2c0,0.6-0.2,1.1-0.5,1.5
			C318.9,26.4,318.3,26.7,317.5,26.7z"/>
		<path class="st0" d="M341.5,44.8c-0.9,0-1.7-1.1-2.6-3.1c-0.6-1.3-1.1-2.8-1.5-4.5c-0.8,0.1-2.2,0.2-4,0.4c-1.7,0.1-3.1,0.3-4,0.4
			c-0.5,1.2-1.4,3-2.6,5.5c-0.5,0.8-1.2,1.2-2,1.2c-0.6,0-1.2-0.2-1.6-0.6s-0.7-0.9-0.7-1.6c0-0.6,0.8-2.5,2.4-5.7
			c-0.2-0.3-0.2-0.7-0.2-1c0-0.5,0.6-0.9,1.6-1.2c1.6-2.7,3.3-5.5,5.2-8.4c2.8-4.2,4.5-6.3,5.1-6.3c1.2,0,2,0.7,2.4,2.2
			c0.2,1.2,0.6,3,1,5.3c0.7,3.2,1.5,6.8,2.5,10.9c0.1,0.3,0.4,1,0.8,2.2c0.4,0.9,0.6,1.7,0.6,2.1c0,0.6-0.2,1.2-0.7,1.6
			C342.7,44.6,342.1,44.9,341.5,44.8z M335.3,27.9c-0.9,1.5-2,3.5-3.6,6c0.5-0.1,1.3-0.2,2.3-0.3c1.2-0.1,2-0.1,2.3-0.2
			C336.2,32,335.8,30.1,335.3,27.9z M342,12.8c-0.6,0.4-1.3,1.1-2.2,2c-0.9,1-1.6,1.7-2.2,2.1c-0.4,0.3-0.9,0.5-1.4,0.5
			c-0.6,0-1.1-0.2-1.5-0.6s-0.6-0.8-0.6-1.3c0-0.4,0.2-0.9,0.7-1.3c0.4-0.4,0.8-0.8,1.2-1.1c1.2-1.3,1.9-2,2.1-2.2
			c1-0.9,1.9-1.4,2.7-1.4c0.6,0,1.1,0.2,1.5,0.6c0.4,0.4,0.6,0.8,0.6,1.3C342.9,11.9,342.6,12.4,342,12.8z"/>
		<path class="st0" d="M371.1,40.3c0,0.6-0.1,1.4-0.3,2.6c-0.2,1.4-1,2.1-2.4,2.1c-0.8,0-1.6-0.4-2.6-1.3c-4.2-3.8-9-9.2-14.4-16.1
			c-0.1,2.9-0.1,4.6-0.1,5.3c0,0.9,0,2.2,0.1,3.9c0,1.8,0.1,3.1,0.1,3.9c0,3.3-0.8,4.9-2.4,4.9c-0.8,0-1.5-0.2-1.9-0.7
			c-0.4-0.4-0.6-1-0.6-1.6c0-0.4,0-1.1,0.1-2c0.1-0.9,0.1-1.6,0.1-2c0-0.7,0-1.6,0.1-2.9c0-1.3,0.1-2.3,0.1-2.9c0-0.7,0-1.7,0-3.1
			c0-1.4,0-2.4,0-3.1c0-0.7-0.1-1.6-0.2-3c-0.1-1.3-0.2-2.3-0.2-3c0-0.7,0.3-1.3,0.9-1.8c0.6-0.5,1.2-0.8,1.9-0.8
			c0.8,0,1.7,0.7,2.7,2.1c5,7.1,9.9,13,14.8,17.5c0-0.4,0-1.2,0-2.5c0-5.4-0.1-9.1-0.2-11c0-0.3-0.1-0.9-0.2-1.8
			c-0.1-0.8-0.2-1.4-0.2-1.8c0-1.5,0.8-2.3,2.4-2.3c1.8,0,2.7,2.8,2.7,8.3c0,0.1,0,1,0,2.6C371.1,35.4,371.1,38.9,371.1,40.3z"/>
		<path class="st0" d="M390.8,26.7c-1,0-1.7-0.5-2.2-1.6c-0.2-0.5-0.4-0.8-0.7-0.9c-0.2-0.1-0.6-0.1-1.3-0.1c-1.4,0-3,1.1-4.8,3.2
			c-2.5,3-3.8,5.9-3.8,8.5c0,1.2,0.4,2.2,1.2,3.1s1.8,1.3,2.9,1.3c1.1,0,2.2-0.3,3.3-0.9c0.4-0.2,1.2-0.8,2.5-1.6
			c0.9-0.6,1.5-0.9,2-0.9c0.7,0,1.2,0.2,1.7,0.7c0.4,0.5,0.6,1,0.6,1.6c0,0.7-0.3,1.2-0.9,1.7c-3,2.6-6.1,3.8-9.3,3.8
			c-2.5,0-4.6-0.9-6.3-2.7c-1.6-1.7-2.4-3.8-2.4-6.2c0-3.7,1.6-7.5,4.8-11.3c2.7-3.3,5.6-4.9,8.4-4.9c0.5,0,0.9,0,1.3,0
			c0.4,0,0.7,0.1,1,0.1c0.5-0.5,1.1-0.7,1.8-0.7c1.1,0,1.8,0.6,2.1,1.9c0.2,0.9,0.3,2,0.3,3.2c0,0.6-0.2,1.1-0.5,1.5
			C392.2,26.4,391.6,26.7,390.8,26.7z"/>
		<path class="st0" d="M411.8,23.1c-0.2,0-0.5,0-0.7-0.1c-1.8-0.5-3.5-0.7-5.2-0.7c-0.8,0-1.7,0.1-2.7,0.2c-0.9,0.1-2,0.3-3,0.6
			c0,1.5,0,3.6-0.1,6.5c0.6,0,2.8-0.2,6.5-0.6c2.1-0.2,3.4-0.3,4-0.3c0.7,0,1.2,0.2,1.7,0.6c0.5,0.4,0.7,1,0.7,1.6
			c0,1.3-0.7,2.1-2.1,2.2c-0.9,0.1-2.2,0.2-4,0.3c-1.6,0.2-3.9,0.4-7.1,0.6c-0.1,1.4-0.1,2.5-0.1,3.4c0,2.2,0.1,3.4,0.4,3.7
			c0.1,0.1,0.8,0.2,2.1,0.2c0.7,0,1.7,0,3.1,0s2.4,0,3.1,0c0.2,0,0.5,0,1-0.1c0.4-0.1,0.8-0.1,1-0.1c0.6,0,1.2,0.2,1.6,0.5
			c0.5,0.4,0.8,1,0.8,1.7c0,1.2-0.6,2-1.9,2.2c-1.1,0.2-3.4,0.3-6.9,0.3c-3.6,0-5.9-0.5-7-1.5c-1.2-1.1-1.8-3.4-1.8-6.9
			c0-1.5,0.1-3.7,0.3-6.7c0.2-3,0.3-5.2,0.3-6.6c0-0.4-0.1-1-0.2-1.7c-0.1-0.8-0.2-1.3-0.2-1.7c0-1.7,0.8-2.5,2.3-2.5
			c0.5,0,0.9,0.1,1.3,0.4c1.3-0.3,2.5-0.6,3.6-0.7c1.2-0.2,2.2-0.2,3.3-0.2c2.8,0,5,0.3,6.7,1c1,0.4,1.5,1.1,1.5,2.1
			c0,0.6-0.2,1.1-0.6,1.5C413.1,22.9,412.5,23.1,411.8,23.1z"/>
		<path class="st0" d="M433.3,44.5c-0.6,0-1.1-0.2-1.6-0.7c-3.3-3.1-7-5.3-11-6.5c0.1,3.2,0.2,5,0.2,5.3c0,0.6-0.2,1.2-0.7,1.6
			c-0.4,0.4-1,0.7-1.7,0.7c-0.7,0-1.2-0.2-1.7-0.7c-0.4-0.4-0.7-1-0.7-1.6c0-0.8,0-2.1,0-3.7c0-1.6,0-2.9,0-3.7l0-13.4
			c0-0.7,0.2-1.4,0.6-2c0.6-0.8,1.3-1.1,2.3-1c2.7,0.2,4.1,0.3,4.1,0.3c1.5,0.2,2.9,0.6,3.9,1.1c4.7,2.4,7.1,5.3,7.1,8.8
			c0,1.4-0.5,2.7-1.5,3.8c-1,1.1-2.5,2-4.4,2.8c2.9,1.6,5.1,3.3,6.6,5c0.4,0.4,0.6,0.9,0.6,1.5c0,0.6-0.2,1.1-0.7,1.6
			S433.9,44.5,433.3,44.5z M422.7,23.7c-0.1,0-0.7-0.1-1.9-0.1v8.8c0.3,0,0.5,0,0.7,0c2.7,0,4.7-0.3,6-1c0.6-0.3,1.1-0.7,1.5-1.1
			c0.5-0.5,0.7-0.8,0.7-1.1c0-1.2-0.8-2.4-2.3-3.6C425.9,24.5,424.3,23.9,422.7,23.7z"/>
		<path class="st0" d="M157.8,56.2c-0.1,0-0.2,0-0.3-0.1c-0.8-0.3-1.8-0.4-3-0.4c-0.4,0-0.9,0-1.4,0.1c-0.5,0.1-1.2,0.1-1.8,0.3l0,4
			c1.2-0.3,2.1-0.5,2.7-0.5c0.9,0,1.9,0.1,2.9,0.2c0.6,0.1,0.9,0.4,0.9,0.9c0,0.3-0.1,0.5-0.3,0.7s-0.4,0.3-0.7,0.3
			c-0.3,0-0.8,0-1.4-0.1s-1.1-0.1-1.4-0.1c-0.4,0-1.3,0.2-2.7,0.5l-0.1,6.3c0,0.3-0.1,0.5-0.3,0.7c-0.2,0.2-0.4,0.3-0.7,0.3
			c-0.3,0-0.5-0.1-0.7-0.3c-0.2-0.2-0.3-0.4-0.3-0.7c0-1.2,0-3,0.1-5.4s0.1-4.2,0.1-5.4c0-0.3,0-0.7,0-1.2c0-0.5,0-0.9,0-1.2
			s0.1-0.5,0.3-0.7c0.2-0.2,0.4-0.3,0.7-0.3c0.2,0,0.4,0.1,0.5,0.2c0.8-0.1,1.4-0.2,2-0.3c0.6-0.1,1.1-0.1,1.6-0.1
			c0.7,0,1.5,0.1,2.4,0.3c1.2,0.3,1.8,0.6,1.8,1.1c0,0.2-0.1,0.5-0.2,0.7C158.3,56.1,158.1,56.2,157.8,56.2z"/>
		<path class="st0" d="M187.4,68.6c-1.9,0-3.3-0.5-4.3-1.6c-0.8-0.9-1.2-2.2-1.4-3.9c-0.1-0.8-0.1-2.3-0.1-4.7c0-0.9,0-1.6,0.1-2.1
			c0-0.6,0.1-0.9,0.2-1.2c0.2-0.4,0.4-0.7,0.8-0.7c0.6,0,0.8,0.5,0.8,1.6v5.4c0,3.7,1.3,5.6,3.9,5.6c2.4,0,3.7-3.1,3.7-9.4
			c0-0.2,0-0.5,0-0.9c0-0.4,0-0.6,0-0.7c0-0.4,0.1-0.7,0.2-1c0.2-0.4,0.4-0.6,0.8-0.6c0.6,0,0.9,0.4,0.9,1.3c0,0.3,0,0.6,0,1.1
			c0,0.5,0,0.9,0,1.1C192.9,65.1,191.1,68.6,187.4,68.6z"/>
		<path class="st0" d="M229.3,66.2c0,0.3,0,0.8-0.1,1.5c-0.1,0.6-0.4,0.9-1,0.9c-0.3,0-0.7-0.2-1.2-0.7c-2.5-2.4-5.4-5.8-8.6-10.2
			l0,2.1l0,2.1c0,0.5,0,1.3,0,2.3s0,1.8,0,2.3c0,1.6-0.3,2.5-1,2.5c-0.3,0-0.6-0.1-0.8-0.3c-0.2-0.2-0.3-0.4-0.3-0.7
			c0-0.3,0-0.6,0.1-1.2c0-0.5,0.1-0.9,0.1-1.2c0-0.4,0-0.9,0-1.7c0-0.8,0-1.3,0-1.7c0-0.4,0-1,0-1.8c0-0.8,0-1.4,0-1.8
			c0-0.4,0-1-0.1-1.7c-0.1-0.8-0.1-1.3-0.1-1.7c0-0.3,0.1-0.5,0.4-0.8s0.5-0.3,0.8-0.3c0.3,0,0.7,0.4,1.2,1.1
			c1.5,2.3,2.9,4.2,4.1,5.7c1.5,1.8,3,3.5,4.8,5.1c0-0.3,0-0.7,0-1.2l0-1.2c0-2.7-0.1-4.8-0.3-6.4c0-0.2-0.1-0.5-0.2-1
			c-0.1-0.4-0.2-0.7-0.2-1c0-0.7,0.3-1.1,1-1.1c1.1,0,1.6,2,1.6,6c0,0.7,0,1.7,0,3C229.3,64.5,229.3,65.6,229.3,66.2z"/>
		<path class="st0" d="M261.1,68.2c-0.9,0.6-2.3,1-4.1,1c-0.4,0-1-0.1-1.5-0.2c-0.7-0.2-1.2-0.4-1.6-0.6h-0.1
			c-0.3,0-0.5-0.1-0.7-0.3c-0.2-0.2-0.3-0.4-0.3-0.7c0-0.6,0-1.6,0.1-2.9c0.1-1.3,0.1-2.2,0.1-2.9c0-0.7,0-1.8,0-3.2
			c0-1.4,0-2.5,0-3.2c0-0.3,0.1-0.5,0.4-0.8c0.3-0.3,0.5-0.4,0.8-0.4c0.1,0,0.6,0.2,1.5,0.6c0.9,0.5,1.5,0.7,1.6,0.8
			c1.7,0.6,3.2,1.5,4.4,2.7c1.4,1.5,2.2,3,2.2,4.8c0,1-0.2,2.1-0.7,3C262.6,66.9,261.9,67.6,261.1,68.2z M259.1,58.5
			c-0.6-0.4-2.1-1.1-4.3-2.1l0,2.6l0,2.6l-0.1,5c0,0,0.1,0.1,0.2,0.1c0.5,0.4,1.2,0.5,2,0.5c1.4,0,2.4-0.2,3.1-0.6
			c0.6-0.4,1.1-0.9,1.4-1.6c0.4-0.7,0.5-1.4,0.5-2.1C262,61.2,261,59.7,259.1,58.5z"/>
		<path class="st0" d="M297.3,68.6c-0.6,0-1.1-0.7-1.5-2.2c-0.2-0.6-0.4-1.5-0.6-2.9c-0.6,0.1-1.4,0.2-2.5,0.5l-2.4,0.5
			c-0.3,0.8-0.8,2-1.6,3.5c-0.2,0.3-0.5,0.5-0.8,0.5c-0.2,0-0.5-0.1-0.7-0.3s-0.3-0.4-0.3-0.7c0-0.3,0.5-1.4,1.4-3.4
			c-0.1-0.2-0.2-0.3-0.2-0.6c0-0.5,0.3-0.8,0.9-1c0.7-1.3,1.6-2.8,2.6-4.5c1.5-2.3,2.4-3.5,2.7-3.5c0.5,0,0.8,0.3,1,1l0.6,3.1
			l1.4,6.4l0.5,1.5c0.2,0.5,0.3,0.8,0.3,1c0,0.3-0.1,0.5-0.3,0.7S297.6,68.6,297.3,68.6z M294.1,58l-2.6,4.2
			c0.7-0.2,1.9-0.4,3.4-0.7L294.1,58z"/>
		<path class="st0" d="M330.9,58c-0.4,0-0.7-0.2-0.9-0.7c-0.2-0.4-0.3-0.6-0.5-0.7c-0.1-0.1-0.4-0.1-1-0.1c-0.9,0-1.9,0.7-3,2
			c-1.5,1.8-2.2,3.6-2.2,5.2c0,0.8,0.3,1.5,0.8,2c0.5,0.6,1.1,0.9,1.9,0.9c0.6,0,1.3-0.2,1.9-0.5c0.4-0.2,0.9-0.5,1.6-1.1
			c0.3-0.3,0.6-0.4,0.8-0.4c0.3,0,0.5,0.1,0.7,0.3s0.3,0.4,0.3,0.7c0,0.3-0.1,0.5-0.3,0.7c-1.6,1.4-3.3,2.2-4.9,2.2
			c-1.3,0-2.3-0.5-3.2-1.5c-0.8-0.9-1.3-2.1-1.3-3.3c0-2.1,0.9-4.2,2.6-6.4c1.5-1.8,2.9-2.7,4.4-2.7c0.3,0,0.6,0,0.8,0
			c0.2,0,0.5,0.1,0.6,0.1c0.2-0.3,0.5-0.5,0.8-0.5c0.4,0,0.7,0.3,0.8,0.8c0.1,0.5,0.1,1.1,0.1,1.8c0,0.3-0.1,0.5-0.2,0.7
			C331.4,57.8,331.2,58,330.9,58z"/>
		<path class="st0" d="M361.9,56.8c-0.4,0-0.9,0-1.5-0.1l-1.5-0.2c-0.1,1.8-0.2,3.5-0.2,5.1c0,0.4,0,1,0,1.6c0,0.6,0,1.2,0,1.6
			c0,0.6,0,1.1-0.1,1.6l2.9,0c0.3,0,0.5,0.1,0.6,0.3c0.2,0.2,0.3,0.4,0.3,0.7c0,0.3-0.1,0.5-0.3,0.7c-0.2,0.2-0.4,0.3-0.6,0.3
			c-0.3,0-0.9,0-1.5,0c-0.7,0-1.2,0-1.5,0c-0.4,0-1,0.1-1.8,0.2c-0.8,0.1-1.4,0.2-1.8,0.2c-0.3,0-0.5-0.1-0.6-0.3
			c-0.2-0.2-0.3-0.4-0.3-0.7c0-0.3,0.1-0.5,0.3-0.7c0.2-0.2,0.4-0.3,0.6-0.3c0.4,0,1.1-0.1,2-0.2c0.1-0.5,0.1-1.1,0.1-1.7
			c0-0.4,0-0.9-0.1-1.5c0-0.6-0.1-1.1-0.1-1.5c0-1.4,0.1-3.2,0.3-5.3l-1.2,0l-1.2,0c-0.3,0-0.5-0.1-0.7-0.3s-0.3-0.4-0.3-0.7
			c0-0.6,0.3-0.9,0.9-0.9c0.5,0,1.4-0.1,2.8-0.1c1.2,0,2.7,0.1,4.6,0.4c0.5,0.1,0.8,0.4,0.8,1c0,0.3-0.1,0.5-0.3,0.7
			C362.4,56.8,362.2,56.8,361.9,56.8z"/>
		<path class="st0" d="M391.9,68.8c-1.7,0-3.2-0.5-4.4-1.6c-1.3-1.1-1.9-2.5-1.9-4.3c0-2.1,0.6-4,1.9-5.8c1.4-1.9,3.2-2.9,5.2-2.9
			c2,0,3.5,0.5,4.5,1.4c1,0.9,1.5,2.4,1.5,4.5c0,2.1-0.6,4-1.7,5.7C395.7,67.9,394,68.8,391.9,68.8z M392.7,56.2
			c-1.5,0-2.8,0.7-3.8,2.2c-1,1.4-1.4,2.9-1.4,4.5c0,1.2,0.4,2.1,1.3,2.9c0.8,0.7,1.9,1,3.1,1c1.5,0,2.7-0.8,3.7-2.3
			c0.9-1.3,1.3-2.8,1.3-4.5c0-1.5-0.3-2.5-1-3.1C395.2,56.5,394.2,56.2,392.7,56.2z M393.4,53.2c-0.2,0-0.4-0.1-0.6-0.3
			c-0.2-0.2-0.3-0.4-0.3-0.6c0-0.2,0.1-0.4,0.3-0.6c0.3-0.3,0.7-0.7,1.2-1.5c0.4-0.5,0.9-1,1.4-1.3c0.2-0.1,0.3-0.2,0.5-0.2
			c0.2,0,0.4,0.1,0.6,0.3c0.2,0.2,0.2,0.4,0.2,0.6c0,0.2-0.1,0.5-0.3,0.6c-0.4,0.3-0.8,0.8-1.2,1.3c-0.4,0.6-0.8,1-1.2,1.3
			C393.8,53.2,393.6,53.2,393.4,53.2z"/>
		<path class="st0" d="M434.8,66.2c0,0.3,0,0.8-0.1,1.5c-0.1,0.6-0.4,0.9-1,0.9c-0.3,0-0.7-0.2-1.2-0.7c-2.5-2.4-5.4-5.8-8.6-10.2
			l0,2.1l0,2.1c0,0.5,0,1.3,0,2.3s0,1.8,0,2.3c0,1.6-0.3,2.5-1,2.5c-0.3,0-0.6-0.1-0.8-0.3c-0.2-0.2-0.3-0.4-0.3-0.7
			c0-0.3,0-0.6,0.1-1.2c0-0.5,0.1-0.9,0.1-1.2c0-0.4,0-0.9,0-1.7c0-0.8,0-1.3,0-1.7c0-0.4,0-1,0-1.8c0-0.8,0-1.4,0-1.8
			c0-0.4,0-1-0.1-1.7c-0.1-0.8-0.1-1.3-0.1-1.7c0-0.3,0.1-0.5,0.4-0.8s0.5-0.3,0.8-0.3c0.3,0,0.7,0.4,1.2,1.1
			c1.5,2.3,2.9,4.2,4.1,5.7c1.5,1.8,3,3.5,4.8,5.1c0-0.3,0-0.7,0-1.2l0-1.2c0-2.7-0.1-4.8-0.3-6.4c0-0.2-0.1-0.5-0.2-1
			c-0.1-0.4-0.2-0.7-0.2-1c0-0.7,0.3-1.1,1-1.1c1.1,0,1.6,2,1.6,6c0,0.7,0,1.7,0,3C434.8,64.5,434.8,65.6,434.8,66.2z"/>
	</g>
</g>
<g>
	<path class="st1" d="M123.2-29.7H15.9c-5.2,0-9.5-4.3-9.5-9.5v-52.4c0-5.2,4.3-9.5,9.5-9.5h107.4c5.2,0,9.5,4.3,9.5,9.5v52.4
		C132.7-34,128.5-29.7,123.2-29.7z"/>
	<g>
		<path class="st0" d="M96.1-36.6c-13.9,0-28-10.3-28-30.1c0-17.1-12.8-24.9-24.6-24.9C31.7-91.6,19-83.8,19-66.7h-2.6
			c0-18.9,14-27.5,27-27.5c7.1,0,13.7,2.4,18.7,6.9c5.6,5,8.5,12.1,8.5,20.6c0,18,12.8,27.5,25.4,27.5c6.4,0,12.2-2.4,16.5-6.7
			c4.9-4.9,7.5-12.1,7.5-20.8h2.6c0,9.4-2.9,17.2-8.3,22.6C109.6-39.3,103.1-36.6,96.1-36.6z"/>
		<rect x="87" y="-86.5" class="st0" width="4.5" height="8.1"/>
		<rect x="98.7" y="-86.5" class="st0" width="4.5" height="8.1"/>
	</g>
</g>
<g>
	<g>
		<g>
			<path class="st2" d="M173.8-66.9c0,0.6-0.1,1.4-0.3,2.6c-0.2,1.4-1,2.1-2.4,2.1c-0.8,0-1.6-0.4-2.6-1.3c-4.2-3.8-9-9.2-14.4-16.1
				c-0.1,2.9-0.1,4.6-0.1,5.3c0,0.9,0,2.2,0.1,3.9c0,1.8,0.1,3.1,0.1,3.9c0,3.3-0.8,4.9-2.4,4.9c-0.8,0-1.5-0.2-1.9-0.7
				c-0.4-0.4-0.6-1-0.6-1.6c0-0.4,0-1.1,0.1-2c0.1-0.9,0.1-1.6,0.1-2c0-0.7,0-1.6,0.1-2.9c0-1.3,0.1-2.3,0.1-2.9c0-0.7,0-1.7,0-3.1
				c0-1.4,0-2.4,0-3.1c0-0.7-0.1-1.6-0.2-3c-0.1-1.3-0.2-2.3-0.2-3c0-0.7,0.3-1.3,0.9-1.8c0.6-0.5,1.2-0.8,1.9-0.8
				c0.8,0,1.7,0.7,2.7,2.1c5,7.1,9.9,13,14.8,17.5c0-0.4,0-1.2,0-2.5c0-5.4-0.1-9.1-0.2-11c0-0.3-0.1-0.9-0.2-1.8
				c-0.1-0.8-0.2-1.4-0.2-1.8c0-1.5,0.8-2.3,2.4-2.3c1.8,0,2.7,2.8,2.7,8.3c0,0.1,0,1,0,2.6C173.8-71.8,173.8-68.3,173.8-66.9z"/>
			<path class="st2" d="M190.6-82.4c-0.5,0-2-0.2-4.4-0.5c-0.2,2-0.2,4.7-0.2,8.1l0,7.4c1.5,0,3,0,4.5,0c0.7,0,1.2,0.2,1.6,0.7
				c0.4,0.4,0.7,1,0.7,1.6s-0.2,1.1-0.7,1.6c-0.4,0.4-1,0.7-1.7,0.7c-0.6,0-1.6,0-2.8,0c-1.3,0-2.2,0-2.8,0c-0.7,0-1.9,0.1-3.3,0.3
				c-1.5,0.2-2.6,0.3-3.3,0.3c-0.7,0-1.2-0.2-1.7-0.7c-0.4-0.4-0.7-1-0.7-1.6c0-0.6,0.2-1.1,0.7-1.6c0.5-0.4,1.1-0.7,1.8-0.7
				c0.8,0,1.9-0.1,3.2-0.2c0-1.3,0-3.8,0-7.5c0-3,0.1-5.9,0.3-8.6l-3.6,0.1c-0.7,0-1.2-0.2-1.7-0.6s-0.7-1-0.7-1.6
				c0-0.7,0.2-1.2,0.6-1.6c0.4-0.4,0.9-0.6,1.5-0.6c0.9-0.1,2.6-0.1,4.9-0.1c2.1,0,4.8,0.2,8.1,0.7c1.3,0.2,2,0.9,2,2.3
				c0,0.7-0.3,1.3-0.8,1.7C191.7-82.6,191.2-82.4,190.6-82.4z"/>
			<path class="st2" d="M219.9-66.9c0,0.6-0.1,1.4-0.3,2.6c-0.2,1.4-1,2.1-2.4,2.1c-0.8,0-1.6-0.4-2.6-1.3c-4.2-3.8-9-9.2-14.4-16.1
				c-0.1,2.9-0.1,4.6-0.1,5.3c0,0.9,0,2.2,0.1,3.9c0,1.8,0.1,3.1,0.1,3.9c0,3.3-0.8,4.9-2.4,4.9c-0.8,0-1.5-0.2-1.9-0.7
				c-0.4-0.4-0.6-1-0.6-1.6c0-0.4,0-1.1,0.1-2c0.1-0.9,0.1-1.6,0.1-2c0-0.7,0-1.6,0.1-2.9c0-1.3,0.1-2.3,0.1-2.9c0-0.7,0-1.7,0-3.1
				c0-1.4,0-2.4,0-3.1c0-0.7-0.1-1.6-0.2-3c-0.1-1.3-0.2-2.3-0.2-3c0-0.7,0.3-1.3,0.9-1.8c0.6-0.5,1.2-0.8,1.9-0.8
				c0.8,0,1.7,0.7,2.7,2.1c5,7.1,9.9,13,14.8,17.5c0-0.4,0-1.2,0-2.5c0-5.4-0.1-9.1-0.2-11c0-0.3-0.1-0.9-0.2-1.8
				c-0.1-0.8-0.2-1.4-0.2-1.8c0-1.5,0.8-2.3,2.4-2.3c1.8,0,2.7,2.8,2.7,8.3c0,0.1,0,1,0,2.6C219.9-71.8,219.9-68.3,219.9-66.9z
				 M213.8-91.2c-0.7,0.6-1.7,0.9-2.8,0.9c-1.3,0-2.3-0.2-3.1-0.5c-0.7-0.3-1.4-0.9-2.2-1.8c-0.4-0.5-0.8-0.7-1.1-0.7
				c-0.6,0-1.1,0.4-1.6,1.2c-0.5,0.8-1.1,1.2-1.8,1.2c-0.5,0-0.9-0.1-1.3-0.4c-0.4-0.3-0.6-0.7-0.6-1.1c0-0.1,0-0.3,0.1-0.5
				c0.3-1,1-1.9,1.9-2.5c1-0.7,2.1-1,3.4-1c1.1,0,2,0.2,2.7,0.6c0.4,0.2,1,0.8,1.8,1.7c0.4,0.5,0.9,0.7,1.5,0.7c0.5,0,0.8-0.2,1-0.5
				c0.2-0.3,0.4-0.6,0.5-0.9c0.1-0.2,0.2-0.4,0.3-0.8c0.3-0.5,0.8-0.7,1.6-0.7c0.5,0,1,0.1,1.4,0.4c0.4,0.3,0.5,0.7,0.5,1.1
				c0,0.4-0.3,1-0.8,1.9C214.6-92,214.1-91.5,213.8-91.2z"/>
			<path class="st2" d="M234.2-61.9c-3.3,0-6-0.9-8.3-2.8c-2.4-2-3.7-4.6-3.7-7.8c0-3.8,1.2-7.2,3.5-10.3c2.6-3.5,6-5.2,10-5.2
				c3.8,0,6.7,0.9,8.7,2.6c1.9,1.8,2.9,4.4,2.9,8c0,3.8-1.1,7.1-3.2,10.2C241.5-63.6,238.3-61.9,234.2-61.9z M235.7-83.5
				c-2.5,0-4.6,1.2-6.3,3.6c-1.6,2.2-2.5,4.7-2.5,7.4c0,1.8,0.7,3.3,2.1,4.5c1.4,1.1,3.1,1.7,5.2,1.7c2.4,0,4.5-1.2,6.1-3.6
				c1.5-2.2,2.2-4.6,2.2-7.4c0-2.3-0.5-3.9-1.6-4.8C240-83,238.2-83.5,235.7-83.5z"/>
			<path class="st2" d="M283-83.3c-0.6,1.2-1.7,3.7-3.4,7.5c-1.4,3.2-2.6,5.7-3.6,7.6c-1.7,3.2-2.6,4.9-2.8,5
				c-0.7,1-1.4,1.4-2.3,1.4c-0.6,0-1.1-0.2-1.6-0.6c-0.5-0.4-0.8-1-0.8-1.6c0-0.5,1.2-2.8,3.5-6.8c-0.8-1.2-2.1-3.1-3.7-5.6
				c-1.2-1.8-2.9-4.6-5.2-8.3c-0.2-0.4-0.3-0.8-0.3-1.2c0-0.6,0.2-1.2,0.7-1.6c0.5-0.4,1-0.6,1.6-0.6c0.7,0,1.4,0.4,2,1.1l1.2,2
				c0.1,0.1,1,1.7,2.8,4.8c1.1,2,2.2,3.5,3,4.7c0.8-1.7,2-4.2,3.6-7.7c0.3-0.8,0.8-1.9,1.5-3.5c0.4-1,1.1-1.5,2.2-1.5
				c0.6,0,1.1,0.2,1.6,0.6c0.5,0.4,0.8,1,0.8,1.6C283.9-85.5,283.6-84.6,283-83.3z"/>
			<path class="st2" d="M317.5-80.5c-1,0-1.7-0.5-2.2-1.6c-0.2-0.5-0.4-0.8-0.7-0.9c-0.2-0.1-0.6-0.1-1.3-0.1c-1.4,0-3,1.1-4.8,3.2
				c-2.5,3-3.8,5.9-3.8,8.5c0,1.2,0.4,2.2,1.2,3.1s1.8,1.3,2.9,1.3c1.1,0,2.2-0.3,3.3-0.9c0.4-0.2,1.2-0.8,2.5-1.6
				c0.9-0.6,1.5-0.9,2-0.9c0.7,0,1.2,0.2,1.7,0.7c0.4,0.5,0.6,1,0.6,1.6c0,0.7-0.3,1.2-0.9,1.7c-3,2.6-6.1,3.8-9.3,3.8
				c-2.5,0-4.6-0.9-6.3-2.7c-1.6-1.7-2.4-3.8-2.4-6.2c0-3.7,1.6-7.5,4.8-11.3c2.7-3.3,5.6-4.9,8.4-4.9c0.5,0,0.9,0,1.3,0
				c0.4,0,0.7,0.1,1,0.1c0.5-0.5,1.1-0.7,1.8-0.7c1.1,0,1.8,0.6,2.1,1.9c0.2,0.9,0.3,2,0.3,3.2c0,0.6-0.2,1.1-0.5,1.5
				C318.9-80.8,318.3-80.5,317.5-80.5z"/>
			<path class="st2" d="M341.5-62.4c-0.9,0-1.7-1.1-2.6-3.1c-0.6-1.3-1.1-2.8-1.5-4.5c-0.8,0.1-2.2,0.2-4,0.4
				c-1.7,0.1-3.1,0.3-4,0.4c-0.5,1.2-1.4,3-2.6,5.5c-0.5,0.8-1.2,1.2-2,1.2c-0.6,0-1.2-0.2-1.6-0.6s-0.7-0.9-0.7-1.6
				c0-0.6,0.8-2.5,2.4-5.7c-0.2-0.3-0.2-0.7-0.2-1c0-0.5,0.6-0.9,1.6-1.2c1.6-2.7,3.3-5.5,5.2-8.4c2.8-4.2,4.5-6.3,5.1-6.3
				c1.2,0,2,0.7,2.4,2.2c0.2,1.2,0.6,3,1,5.3c0.7,3.2,1.5,6.8,2.5,10.9c0.1,0.3,0.4,1,0.8,2.2c0.4,0.9,0.6,1.7,0.6,2.1
				c0,0.6-0.2,1.2-0.7,1.6C342.7-62.6,342.1-62.4,341.5-62.4z M335.3-79.4c-0.9,1.5-2,3.5-3.6,6c0.5-0.1,1.3-0.2,2.3-0.3
				c1.2-0.1,2-0.1,2.3-0.2C336.2-75.2,335.8-77.1,335.3-79.4z M342-94.4c-0.6,0.4-1.3,1.1-2.2,2c-0.9,1-1.6,1.7-2.2,2.1
				c-0.4,0.3-0.9,0.5-1.4,0.5c-0.6,0-1.1-0.2-1.5-0.6s-0.6-0.8-0.6-1.3c0-0.4,0.2-0.9,0.7-1.3c0.4-0.4,0.8-0.8,1.2-1.1
				c1.2-1.3,1.9-2,2.1-2.2c1-0.9,1.9-1.4,2.7-1.4c0.6,0,1.1,0.2,1.5,0.6c0.4,0.4,0.6,0.8,0.6,1.3C342.9-95.3,342.6-94.8,342-94.4z"
				/>
			<path class="st2" d="M371.1-66.9c0,0.6-0.1,1.4-0.3,2.6c-0.2,1.4-1,2.1-2.4,2.1c-0.8,0-1.6-0.4-2.6-1.3c-4.2-3.8-9-9.2-14.4-16.1
				c-0.1,2.9-0.1,4.6-0.1,5.3c0,0.9,0,2.2,0.1,3.9c0,1.8,0.1,3.1,0.1,3.9c0,3.3-0.8,4.9-2.4,4.9c-0.8,0-1.5-0.2-1.9-0.7
				c-0.4-0.4-0.6-1-0.6-1.6c0-0.4,0-1.1,0.1-2c0.1-0.9,0.1-1.6,0.1-2c0-0.7,0-1.6,0.1-2.9c0-1.3,0.1-2.3,0.1-2.9c0-0.7,0-1.7,0-3.1
				c0-1.4,0-2.4,0-3.1c0-0.7-0.1-1.6-0.2-3c-0.1-1.3-0.2-2.3-0.2-3c0-0.7,0.3-1.3,0.9-1.8c0.6-0.5,1.2-0.8,1.9-0.8
				c0.8,0,1.7,0.7,2.7,2.1c5,7.1,9.9,13,14.8,17.5c0-0.4,0-1.2,0-2.5c0-5.4-0.1-9.1-0.2-11c0-0.3-0.1-0.9-0.2-1.8
				c-0.1-0.8-0.2-1.4-0.2-1.8c0-1.5,0.8-2.3,2.4-2.3c1.8,0,2.7,2.8,2.7,8.3c0,0.1,0,1,0,2.6C371.1-71.8,371.1-68.3,371.1-66.9z"/>
			<path class="st2" d="M390.8-80.5c-1,0-1.7-0.5-2.2-1.6c-0.2-0.5-0.4-0.8-0.7-0.9c-0.2-0.1-0.6-0.1-1.3-0.1c-1.4,0-3,1.1-4.8,3.2
				c-2.5,3-3.8,5.9-3.8,8.5c0,1.2,0.4,2.2,1.2,3.1s1.8,1.3,2.9,1.3c1.1,0,2.2-0.3,3.3-0.9c0.4-0.2,1.2-0.8,2.5-1.6
				c0.9-0.6,1.5-0.9,2-0.9c0.7,0,1.2,0.2,1.7,0.7c0.4,0.5,0.6,1,0.6,1.6c0,0.7-0.3,1.2-0.9,1.7c-3,2.6-6.1,3.8-9.3,3.8
				c-2.5,0-4.6-0.9-6.3-2.7c-1.6-1.7-2.4-3.8-2.4-6.2c0-3.7,1.6-7.5,4.8-11.3c2.7-3.3,5.6-4.9,8.4-4.9c0.5,0,0.9,0,1.3,0
				c0.4,0,0.7,0.1,1,0.1c0.5-0.5,1.1-0.7,1.8-0.7c1.1,0,1.8,0.6,2.1,1.9c0.2,0.9,0.3,2,0.3,3.2c0,0.6-0.2,1.1-0.5,1.5
				C392.2-80.8,391.6-80.5,390.8-80.5z"/>
			<path class="st2" d="M411.8-84.1c-0.2,0-0.5,0-0.7-0.1c-1.8-0.5-3.5-0.7-5.2-0.7c-0.8,0-1.7,0.1-2.7,0.2c-0.9,0.1-2,0.3-3,0.6
				c0,1.5,0,3.6-0.1,6.5c0.6,0,2.8-0.2,6.5-0.6c2.1-0.2,3.4-0.3,4-0.3c0.7,0,1.2,0.2,1.7,0.6c0.5,0.4,0.7,1,0.7,1.6
				c0,1.3-0.7,2.1-2.1,2.2c-0.9,0.1-2.2,0.2-4,0.3c-1.6,0.2-3.9,0.4-7.1,0.6c-0.1,1.4-0.1,2.5-0.1,3.4c0,2.2,0.1,3.4,0.4,3.7
				c0.1,0.1,0.8,0.2,2.1,0.2c0.7,0,1.7,0,3.1,0s2.4,0,3.1,0c0.2,0,0.5,0,1-0.1c0.4-0.1,0.8-0.1,1-0.1c0.6,0,1.2,0.2,1.6,0.5
				c0.5,0.4,0.8,1,0.8,1.7c0,1.2-0.6,2-1.9,2.2c-1.1,0.2-3.4,0.3-6.9,0.3c-3.6,0-5.9-0.5-7-1.5c-1.2-1.1-1.8-3.4-1.8-6.9
				c0-1.5,0.1-3.7,0.3-6.7c0.2-3,0.3-5.2,0.3-6.6c0-0.4-0.1-1-0.2-1.7c-0.1-0.8-0.2-1.3-0.2-1.7c0-1.7,0.8-2.5,2.3-2.5
				c0.5,0,0.9,0.1,1.3,0.4c1.3-0.3,2.5-0.6,3.6-0.7c1.2-0.2,2.2-0.2,3.3-0.2c2.8,0,5,0.3,6.7,1c1,0.4,1.5,1.1,1.5,2.1
				c0,0.6-0.2,1.1-0.6,1.5C413.1-84.3,412.5-84.1,411.8-84.1z"/>
			<path class="st2" d="M433.3-62.7c-0.6,0-1.1-0.2-1.6-0.7c-3.3-3.1-7-5.3-11-6.5c0.1,3.2,0.2,5,0.2,5.3c0,0.6-0.2,1.2-0.7,1.6
				c-0.4,0.4-1,0.7-1.7,0.7c-0.7,0-1.2-0.2-1.7-0.7c-0.4-0.4-0.7-1-0.7-1.6c0-0.8,0-2.1,0-3.7c0-1.6,0-2.9,0-3.7l0-13.4
				c0-0.7,0.2-1.4,0.6-2c0.6-0.8,1.3-1.1,2.3-1c2.7,0.2,4.1,0.3,4.1,0.3c1.5,0.2,2.9,0.6,3.9,1.1c4.7,2.4,7.1,5.3,7.1,8.8
				c0,1.4-0.5,2.7-1.5,3.8c-1,1.1-2.5,2-4.4,2.8c2.9,1.6,5.1,3.3,6.6,5c0.4,0.4,0.6,0.9,0.6,1.5c0,0.6-0.2,1.1-0.7,1.6
				S433.9-62.7,433.3-62.7z M422.7-83.5c-0.1,0-0.7-0.1-1.9-0.1v8.8c0.3,0,0.5,0,0.7,0c2.7,0,4.7-0.3,6-1c0.6-0.3,1.1-0.7,1.5-1.1
				c0.5-0.5,0.7-0.8,0.7-1.1c0-1.2-0.8-2.4-2.3-3.6C425.9-82.7,424.3-83.3,422.7-83.5z"/>
			<path class="st2" d="M157.8-51c-0.1,0-0.2,0-0.3-0.1c-0.8-0.3-1.8-0.4-3-0.4c-0.4,0-0.9,0-1.4,0.1c-0.5,0.1-1.2,0.1-1.8,0.3l0,4
				c1.2-0.3,2.1-0.5,2.7-0.5c0.9,0,1.9,0.1,2.9,0.2c0.6,0.1,0.9,0.4,0.9,0.9c0,0.3-0.1,0.5-0.3,0.7s-0.4,0.3-0.7,0.3
				c-0.3,0-0.8,0-1.4-0.1s-1.1-0.1-1.4-0.1c-0.4,0-1.3,0.2-2.7,0.5l-0.1,6.3c0,0.3-0.1,0.5-0.3,0.7c-0.2,0.2-0.4,0.3-0.7,0.3
				c-0.3,0-0.5-0.1-0.7-0.3c-0.2-0.2-0.3-0.4-0.3-0.7c0-1.2,0-3,0.1-5.4s0.1-4.2,0.1-5.4c0-0.3,0-0.7,0-1.2c0-0.5,0-0.9,0-1.2
				s0.1-0.5,0.3-0.7c0.2-0.2,0.4-0.3,0.7-0.3c0.2,0,0.4,0.1,0.5,0.2c0.8-0.1,1.4-0.2,2-0.3c0.6-0.1,1.1-0.1,1.6-0.1
				c0.7,0,1.5,0.1,2.4,0.3c1.2,0.3,1.8,0.6,1.8,1.1c0,0.2-0.1,0.5-0.2,0.7C158.3-51.1,158.1-51,157.8-51z"/>
			<path class="st2" d="M187.4-38.6c-1.9,0-3.3-0.5-4.3-1.6c-0.8-0.9-1.2-2.2-1.4-3.9c-0.1-0.8-0.1-2.3-0.1-4.7c0-0.9,0-1.6,0.1-2.1
				c0-0.6,0.1-0.9,0.2-1.2c0.2-0.4,0.4-0.7,0.8-0.7c0.6,0,0.8,0.5,0.8,1.6v5.4c0,3.7,1.3,5.6,3.9,5.6c2.4,0,3.7-3.1,3.7-9.4
				c0-0.2,0-0.5,0-0.9c0-0.4,0-0.6,0-0.7c0-0.4,0.1-0.7,0.2-1c0.2-0.4,0.4-0.6,0.8-0.6c0.6,0,0.9,0.4,0.9,1.3c0,0.3,0,0.6,0,1.1
				c0,0.5,0,0.9,0,1.1C192.9-42.1,191.1-38.6,187.4-38.6z"/>
			<path class="st2" d="M229.3-41c0,0.3,0,0.8-0.1,1.5c-0.1,0.6-0.4,0.9-1,0.9c-0.3,0-0.7-0.2-1.2-0.7c-2.5-2.4-5.4-5.8-8.6-10.2
				l0,2.1l0,2.1c0,0.5,0,1.3,0,2.3s0,1.8,0,2.3c0,1.6-0.3,2.5-1,2.5c-0.3,0-0.6-0.1-0.8-0.3c-0.2-0.2-0.3-0.4-0.3-0.7
				c0-0.3,0-0.6,0.1-1.2c0-0.5,0.1-0.9,0.1-1.2c0-0.4,0-0.9,0-1.7c0-0.8,0-1.3,0-1.7c0-0.4,0-1,0-1.8c0-0.8,0-1.4,0-1.8
				c0-0.4,0-1-0.1-1.7c-0.1-0.8-0.1-1.3-0.1-1.7c0-0.3,0.1-0.5,0.4-0.8s0.5-0.3,0.8-0.3c0.3,0,0.7,0.4,1.2,1.1
				c1.5,2.3,2.9,4.2,4.1,5.7c1.5,1.8,3,3.5,4.8,5.1c0-0.3,0-0.7,0-1.2l0-1.2c0-2.7-0.1-4.8-0.3-6.4c0-0.2-0.1-0.5-0.2-1
				c-0.1-0.4-0.2-0.7-0.2-1c0-0.7,0.3-1.1,1-1.1c1.1,0,1.6,2,1.6,6c0,0.7,0,1.7,0,3C229.3-42.7,229.3-41.7,229.3-41z"/>
			<path class="st2" d="M261.1-39c-0.9,0.6-2.3,1-4.1,1c-0.4,0-1-0.1-1.5-0.2c-0.7-0.2-1.2-0.4-1.6-0.6h-0.1c-0.3,0-0.5-0.1-0.7-0.3
				c-0.2-0.2-0.3-0.4-0.3-0.7c0-0.6,0-1.6,0.1-2.9C253-44,253-45,253-45.6c0-0.7,0-1.8,0-3.2c0-1.4,0-2.5,0-3.2
				c0-0.3,0.1-0.5,0.4-0.8c0.3-0.3,0.5-0.4,0.8-0.4c0.1,0,0.6,0.2,1.5,0.6c0.9,0.5,1.5,0.7,1.6,0.8c1.7,0.6,3.2,1.5,4.4,2.7
				c1.4,1.5,2.2,3,2.2,4.8c0,1-0.2,2.1-0.7,3C262.6-40.4,261.9-39.6,261.1-39z M259.1-48.7c-0.6-0.4-2.1-1.1-4.3-2.1l0,2.6l0,2.6
				l-0.1,5c0,0,0.1,0.1,0.2,0.1c0.5,0.4,1.2,0.5,2,0.5c1.4,0,2.4-0.2,3.1-0.6c0.6-0.4,1.1-0.9,1.4-1.6c0.4-0.7,0.5-1.4,0.5-2.1
				C262-46,261-47.5,259.1-48.7z"/>
			<path class="st2" d="M297.3-38.7c-0.6,0-1.1-0.7-1.5-2.2c-0.2-0.6-0.4-1.5-0.6-2.9c-0.6,0.1-1.4,0.2-2.5,0.5l-2.4,0.5
				c-0.3,0.8-0.8,2-1.6,3.5c-0.2,0.3-0.5,0.5-0.8,0.5c-0.2,0-0.5-0.1-0.7-0.3s-0.3-0.4-0.3-0.7c0-0.3,0.5-1.4,1.4-3.4
				c-0.1-0.2-0.2-0.3-0.2-0.6c0-0.5,0.3-0.8,0.9-1c0.7-1.3,1.6-2.8,2.6-4.5c1.5-2.3,2.4-3.5,2.7-3.5c0.5,0,0.8,0.3,1,1l0.6,3.1
				l1.4,6.4l0.5,1.5c0.2,0.5,0.3,0.8,0.3,1c0,0.3-0.1,0.5-0.3,0.7S297.6-38.7,297.3-38.7z M294.1-49.2l-2.6,4.2
				c0.7-0.2,1.9-0.4,3.4-0.7L294.1-49.2z"/>
			<path class="st2" d="M330.9-49.2c-0.4,0-0.7-0.2-0.9-0.7c-0.2-0.4-0.3-0.6-0.5-0.7c-0.1-0.1-0.4-0.1-1-0.1c-0.9,0-1.9,0.7-3,2
				c-1.5,1.8-2.2,3.6-2.2,5.2c0,0.8,0.3,1.5,0.8,2c0.5,0.6,1.1,0.9,1.9,0.9c0.6,0,1.3-0.2,1.9-0.5c0.4-0.2,0.9-0.5,1.6-1.1
				c0.3-0.3,0.6-0.4,0.8-0.4c0.3,0,0.5,0.1,0.7,0.3s0.3,0.4,0.3,0.7c0,0.3-0.1,0.5-0.3,0.7c-1.6,1.4-3.3,2.2-4.9,2.2
				c-1.3,0-2.3-0.5-3.2-1.5c-0.8-0.9-1.3-2.1-1.3-3.3c0-2.1,0.9-4.2,2.6-6.4c1.5-1.8,2.9-2.7,4.4-2.7c0.3,0,0.6,0,0.8,0
				c0.2,0,0.5,0.1,0.6,0.1c0.2-0.3,0.5-0.5,0.8-0.5c0.4,0,0.7,0.3,0.8,0.8c0.1,0.5,0.1,1.1,0.1,1.8c0,0.3-0.1,0.5-0.2,0.7
				C331.4-49.4,331.2-49.2,330.9-49.2z"/>
			<path class="st2" d="M361.9-50.4c-0.4,0-0.9,0-1.5-0.1l-1.5-0.2c-0.1,1.8-0.2,3.5-0.2,5.1c0,0.4,0,1,0,1.6c0,0.6,0,1.2,0,1.6
				c0,0.6,0,1.1-0.1,1.6l2.9,0c0.3,0,0.5,0.1,0.6,0.3c0.2,0.2,0.3,0.4,0.3,0.7c0,0.3-0.1,0.5-0.3,0.7c-0.2,0.2-0.4,0.3-0.6,0.3
				c-0.3,0-0.9,0-1.5,0c-0.7,0-1.2,0-1.5,0c-0.4,0-1,0.1-1.8,0.2c-0.8,0.1-1.4,0.2-1.8,0.2c-0.3,0-0.5-0.1-0.6-0.3
				c-0.2-0.2-0.3-0.4-0.3-0.7c0-0.3,0.1-0.5,0.3-0.7c0.2-0.2,0.4-0.3,0.6-0.3c0.4,0,1.1-0.1,2-0.2c0.1-0.5,0.1-1.1,0.1-1.7
				c0-0.4,0-0.9-0.1-1.5c0-0.6-0.1-1.1-0.1-1.5c0-1.4,0.1-3.2,0.3-5.3l-1.2,0l-1.2,0c-0.3,0-0.5-0.1-0.7-0.3s-0.3-0.4-0.3-0.7
				c0-0.6,0.3-0.9,0.9-0.9c0.5,0,1.4-0.1,2.8-0.1c1.2,0,2.7,0.1,4.6,0.4c0.5,0.1,0.8,0.4,0.8,1c0,0.3-0.1,0.5-0.3,0.7
				C362.4-50.5,362.2-50.4,361.9-50.4z"/>
			<path class="st2" d="M391.9-38.4c-1.7,0-3.2-0.5-4.4-1.6c-1.3-1.1-1.9-2.5-1.9-4.3c0-2.1,0.6-4,1.9-5.8c1.4-1.9,3.2-2.9,5.2-2.9
				c2,0,3.5,0.5,4.5,1.4c1,0.9,1.5,2.4,1.5,4.5c0,2.1-0.6,4-1.7,5.7C395.7-39.3,394-38.4,391.9-38.4z M392.7-51
				c-1.5,0-2.8,0.7-3.8,2.2c-1,1.4-1.4,2.9-1.4,4.5c0,1.2,0.4,2.1,1.3,2.9c0.8,0.7,1.9,1,3.1,1c1.5,0,2.7-0.8,3.7-2.3
				c0.9-1.3,1.3-2.8,1.3-4.5c0-1.5-0.3-2.5-1-3.1C395.2-50.7,394.2-51,392.7-51z M393.4-54c-0.2,0-0.4-0.1-0.6-0.3
				c-0.2-0.2-0.3-0.4-0.3-0.6c0-0.2,0.1-0.4,0.3-0.6c0.3-0.3,0.7-0.7,1.2-1.5c0.4-0.5,0.9-1,1.4-1.3c0.2-0.1,0.3-0.2,0.5-0.2
				c0.2,0,0.4,0.1,0.6,0.3c0.2,0.2,0.2,0.4,0.2,0.6c0,0.2-0.1,0.5-0.3,0.6c-0.4,0.3-0.8,0.8-1.2,1.3c-0.4,0.6-0.8,1-1.2,1.3
				C393.8-54.1,393.6-54,393.4-54z"/>
			<path class="st2" d="M434.8-41c0,0.3,0,0.8-0.1,1.5c-0.1,0.6-0.4,0.9-1,0.9c-0.3,0-0.7-0.2-1.2-0.7c-2.5-2.4-5.4-5.8-8.6-10.2
				l0,2.1l0,2.1c0,0.5,0,1.3,0,2.3s0,1.8,0,2.3c0,1.6-0.3,2.5-1,2.5c-0.3,0-0.6-0.1-0.8-0.3c-0.2-0.2-0.3-0.4-0.3-0.7
				c0-0.3,0-0.6,0.1-1.2c0-0.5,0.1-0.9,0.1-1.2c0-0.4,0-0.9,0-1.7c0-0.8,0-1.3,0-1.7c0-0.4,0-1,0-1.8c0-0.8,0-1.4,0-1.8
				c0-0.4,0-1-0.1-1.7c-0.1-0.8-0.1-1.3-0.1-1.7c0-0.3,0.1-0.5,0.4-0.8s0.5-0.3,0.8-0.3c0.3,0,0.7,0.4,1.2,1.1
				c1.5,2.3,2.9,4.2,4.1,5.7c1.5,1.8,3,3.5,4.8,5.1c0-0.3,0-0.7,0-1.2l0-1.2c0-2.7-0.1-4.8-0.3-6.4c0-0.2-0.1-0.5-0.2-1
				c-0.1-0.4-0.2-0.7-0.2-1c0-0.7,0.3-1.1,1-1.1c1.1,0,1.6,2,1.6,6c0,0.7,0,1.7,0,3C434.8-42.7,434.8-41.7,434.8-41z"/>
		</g>
	</g>
</g>
</svg>
